<?xml version="1.0" encoding="utf-8"?>
<!-- Generator: Adobe Illustrator 22.1.0, SVG Export Plug-In . SVG Version: 6.00 Build 0)  -->
<svg version="1.1" id="Слой_1" xmlns="http://www.w3.org/2000/svg" xmlns:xlink="http://www.w3.org/1999/xlink" x="0px" y="0px"
	 viewBox="0 0 30 30" style="enable-background:new 0 0 30 30;" xml:space="preserve" fill="white">
<g>
	<path class="st1" d="M7.6,19.8c-0.2,0-0.5,0.2-0.5,0.5v0.8c0,0.2,0.2,0.5,0.5,0.5s0.5-0.2,0.5-0.5v-0.8C8.1,20,7.9,19.8,7.6,19.8z"
		/>
	<path class="st1" d="M22.6,12.5l-7.4-4.1c-0.1-0.1-0.3-0.1-0.4,0l-7.4,4.1c0,0-0.1,0-0.1,0.1c0,0,0,0,0,0c0,0,0,0,0,0
		c-0.1,0.1-0.1,0.2-0.1,0.3c0,0,0,0,0,0v0c0,0,0,0,0,0v5.6c0,0.2,0.2,0.5,0.5,0.5s0.5-0.2,0.5-0.5v-4.8l1.4,1V18c0,0.1,0,0.1,0,0.2
		c0.3,0.7,3.7,3.5,5.5,3.5c1.8,0,5.2-2.8,5.5-3.5c0-0.1,0-0.1,0-0.2v-3.3l2.1-1.5c0.1-0.1,0.2-0.2,0.2-0.4
		C22.8,12.7,22.7,12.6,22.6,12.5z M19.7,17.9c-0.5,0.6-3.3,2.9-4.7,2.9s-4.2-2.3-4.7-2.9v-2.5l4.4,3.1c0.2,0.1,0.4,0.1,0.5,0
		l4.4-3.1V17.9z M15,17.6l-4.8-3.4c0,0,0,0,0,0l-1.7-1.2L15,9.3l6.5,3.6L15,17.6z"/>
</g>
</svg>
