<?xml version="1.0" encoding="utf-8"?>
<!-- Generator: Adobe Illustrator 22.1.0, SVG Export Plug-In . SVG Version: 6.00 Build 0)  -->
<svg version="1.1" id="Слой_1" xmlns="http://www.w3.org/2000/svg" xmlns:xlink="http://www.w3.org/1999/xlink" x="0px" y="0px"
	 viewBox="0 0 30 30" style="enable-background:new 0 0 30 30;" xml:space="preserve" fill="white">
<path class="st1" d="M24,8.6h-0.1c0,0,0,0,0,0H6.1c0,0,0,0,0,0H6C5.7,8.6,5.5,8.8,5.5,9v12c0,0.2,0.2,0.5,0.5,0.5h18
	c0.2,0,0.5-0.2,0.5-0.5V9C24.5,8.8,24.3,8.6,24,8.6z M6.4,9.9l6.7,5.4l-6.7,4.8V9.9z M22.7,9.5l-0.4,0.3c0,0,0,0,0,0L15,15.7
	L7.3,9.5H22.7z M7.4,20.5l6.5-4.6l0.9,0.7c0.1,0.1,0.2,0.1,0.3,0.1c0.1,0,0.2,0,0.3-0.1l0.9-0.7l6.5,4.6H7.4z M16.9,15.3l5.9-4.8
	l0.8-0.6v10.2L16.9,15.3z"/>
</svg>
