<?xml version="1.0" encoding="utf-8"?>
<!-- Generator: Adobe Illustrator 22.1.0, SVG Export Plug-In . SVG Version: 6.00 Build 0)  -->
<svg version="1.1" id="Слой_1" xmlns="http://www.w3.org/2000/svg" xmlns:xlink="http://www.w3.org/1999/xlink" x="0px" y="0px"
	 viewBox="0 0 30 30" style="enable-background:new 0 0 30 30;" xml:space="preserve" fill="white">
<g>
	<path class="st1" d="M15,11.3c-2,0-3.7,1.6-3.7,3.7c0,2,1.6,3.7,3.7,3.7c2,0,3.7-1.6,3.7-3.7C18.7,13,17,11.3,15,11.3z M15,17.8
		c-1.5,0-2.8-1.2-2.8-2.8s1.2-2.8,2.8-2.8c1.5,0,2.8,1.2,2.8,2.8S16.5,17.8,15,17.8z"/>
	<path class="st1" d="M22.5,13.4l-2.2-0.2c-0.1-0.2-0.2-0.4-0.3-0.6l1.4-1.7c0.1-0.2,0.1-0.4,0-0.6l-1.7-1.7c-0.2-0.2-0.4-0.2-0.6,0
		l-1.7,1.4c-0.2-0.1-0.4-0.2-0.6-0.3l-0.2-2.2c0-0.2-0.2-0.4-0.4-0.4h-2.3c-0.2,0-0.4,0.2-0.4,0.4l-0.2,2.2
		c-0.2,0.1-0.4,0.2-0.6,0.3l-1.7-1.4c-0.2-0.1-0.4-0.1-0.6,0l-1.7,1.7c-0.2,0.2-0.2,0.4,0,0.6l1.4,1.7c-0.1,0.2-0.2,0.4-0.3,0.6
		l-2.2,0.2c-0.2,0-0.4,0.2-0.4,0.4v2.3c0,0.2,0.2,0.4,0.4,0.4l2.2,0.2c0.1,0.2,0.2,0.4,0.3,0.6l-1.4,1.7c-0.1,0.2-0.1,0.4,0,0.6
		l1.7,1.7c0.2,0.2,0.4,0.2,0.6,0l1.7-1.4c0.2,0.1,0.4,0.2,0.6,0.3l0.2,2.2c0,0.2,0.2,0.4,0.4,0.4h2.3c0.2,0,0.4-0.2,0.4-0.4l0.2-2.2
		c0.2-0.1,0.4-0.2,0.6-0.3l1.7,1.4c0.2,0.1,0.4,0.1,0.6,0l1.7-1.7c0.2-0.2,0.2-0.4,0-0.6l-1.4-1.7c0.1-0.2,0.2-0.4,0.3-0.6l2.2-0.2
		c0.2,0,0.4-0.2,0.4-0.4v-2.3C23,13.6,22.8,13.4,22.5,13.4z M22,15.8L20,16c-0.2,0-0.3,0.1-0.4,0.3c-0.1,0.4-0.2,0.7-0.4,1
		c-0.1,0.2-0.1,0.4,0,0.5l1.3,1.6l-1.1,1.1l-1.6-1.3c-0.1-0.1-0.3-0.1-0.5,0c-0.3,0.2-0.7,0.3-1,0.4C16.1,19.6,16,19.8,16,20
		l-0.2,2.1h-1.5L14,20c0-0.2-0.1-0.3-0.3-0.4c-0.4-0.1-0.7-0.2-1-0.4c-0.2-0.1-0.4-0.1-0.5,0l-1.6,1.3l-1.1-1.1l1.3-1.6
		c0.1-0.1,0.1-0.3,0-0.5c-0.2-0.3-0.3-0.7-0.4-1C10.4,16.1,10.2,16,10,16L8,15.8v-1.5L10,14c0.2,0,0.3-0.1,0.4-0.3
		c0.1-0.3,0.2-0.7,0.4-1c0.1-0.2,0.1-0.4,0-0.5l-1.3-1.6l1.1-1.1l1.6,1.3c0.1,0.1,0.3,0.1,0.5,0c0.3-0.2,0.7-0.3,1-0.4
		c0.2,0,0.3-0.2,0.3-0.4l0.2-2.1h1.5L16,10c0,0.2,0.1,0.3,0.3,0.4c0.4,0.1,0.7,0.2,1,0.4c0.2,0.1,0.4,0.1,0.5,0l1.6-1.3l1.1,1.1
		l-1.3,1.6c-0.1,0.1-0.1,0.3,0,0.5c0.2,0.3,0.3,0.7,0.4,1c0.1,0.2,0.2,0.3,0.4,0.3l2.1,0.2V15.8z"/>
</g>
</svg>
