<?xml version="1.0" encoding="utf-8"?>
<!-- Generator: Adobe Illustrator 22.1.0, SVG Export Plug-In . SVG Version: 6.00 Build 0)  -->
<svg version="1.1" id="Слой_1" xmlns="http://www.w3.org/2000/svg" xmlns:xlink="http://www.w3.org/1999/xlink" x="0px" y="0px"
	 viewBox="0 0 30 30" style="enable-background:new 0 0 30 30;" xml:space="preserve" fill="white">
<path class="st1" d="M22.7,20.5c1.1-1.5,1.8-3.4,1.8-5.5c0-2-0.7-3.9-1.8-5.5c0-0.1-0.1-0.1-0.1-0.2C20.8,7,18.1,5.6,15,5.6
	c-3.1,0-5.8,1.5-7.6,3.8c-0.1,0-0.1,0.1-0.1,0.2C6.2,11.1,5.6,13,5.6,15c0,2,0.7,3.9,1.8,5.5c0,0.1,0.1,0.1,0.1,0.2
	c1.7,2.3,4.5,3.8,7.6,3.8c3.1,0,5.8-1.5,7.6-3.8C22.6,20.6,22.7,20.5,22.7,20.5z M6.5,15.5h3.1c0,1.6,0.3,3.1,0.7,4.4H8
	C7.1,18.6,6.6,17.1,6.5,15.5z M8,10.1h2.4c-0.4,1.3-0.7,2.8-0.7,4.4H6.5C6.6,12.9,7.1,11.4,8,10.1z M23.5,14.6h-3.1
	c0-1.6-0.3-3.1-0.7-4.4H22C22.9,11.4,23.4,12.9,23.5,14.6z M19.5,14.6h-4v-4.4h3.2C19.1,11.4,19.4,12.9,19.5,14.6z M15.5,9.2V6.5
	c1.1,0.2,2.1,1.2,2.8,2.7H15.5z M14.6,6.5v2.7h-2.8C12.4,7.7,13.4,6.7,14.6,6.5z M14.6,10.1v4.4h-4c0-1.6,0.3-3.1,0.8-4.4H14.6z
	 M10.5,15.5h4v4.4h-3.2C10.9,18.6,10.6,17.1,10.5,15.5z M14.6,20.8v2.7c-1.1-0.2-2.1-1.2-2.8-2.7H14.6z M15.5,23.5v-2.7h2.8
	C17.6,22.3,16.6,23.3,15.5,23.5z M15.5,19.9v-4.4h4c0,1.6-0.3,3.1-0.8,4.4H15.5z M20.4,15.5h3.1c-0.1,1.6-0.6,3.1-1.5,4.4h-2.4
	C20.1,18.6,20.3,17.1,20.4,15.5z M21.3,9.2h-2c-0.4-0.9-0.9-1.7-1.4-2.3C19.2,7.4,20.4,8.2,21.3,9.2z M12.1,7
	c-0.6,0.6-1,1.4-1.4,2.3h-2C9.6,8.2,10.8,7.4,12.1,7z M8.7,20.8h2c0.4,0.9,0.9,1.7,1.4,2.3C10.8,22.6,9.6,21.8,8.7,20.8z M17.9,23
	c0.6-0.6,1-1.4,1.4-2.3h2C20.4,21.8,19.2,22.6,17.9,23z"/>
</svg>
