<?xml version="1.0" encoding="utf-8"?>
<!-- Generator: Adobe Illustrator 22.1.0, SVG Export Plug-In . SVG Version: 6.00 Build 0)  -->
<svg version="1.1" id="Слой_1" xmlns="http://www.w3.org/2000/svg" xmlns:xlink="http://www.w3.org/1999/xlink" x="0px" y="0px"
	 viewBox="0 0 30 30" style="enable-background:new 0 0 30 30;" xml:space="preserve" fill="white">
<path class="st1" d="M21.4,20.9l-1-1.9c-0.3-0.5-0.7-0.9-1.3-1.1c-0.6-0.2-1.2-0.1-1.7,0.2c-0.3,0.2-0.6,0.4-0.8,0.5l-2.9-6
	c0,0,0,0,0,0L13.3,12l0.7-0.4c0.5-0.3,0.9-0.7,1.1-1.3c0.2-0.6,0.1-1.2-0.2-1.7l-1-1.9c-0.6-1.1-1.9-1.5-3-0.9
	c-2.5,1.3-2.7,3.7-2.6,5.4c0.1,2,0.8,4.4,1.9,6.5c0,0,0,0,0,0c0,0,0,0,0,0c1.1,2,2.7,4,4.3,5.2c0.9,0.7,2.2,1.5,3.7,1.5
	c0.7,0,1.4-0.2,2.2-0.6c0,0,0,0,0,0C21.6,23.3,22,21.9,21.4,20.9z M20.1,23C20.1,23,20,23,20.1,23c-1.6,0.9-3.1,0.6-5-0.8
	c-1.8-1.4-3.2-3.4-4-4.9c-0.8-1.5-1.7-3.9-1.8-6.1c-0.1-2.3,0.5-3.7,2.1-4.5c0.6-0.3,1.4-0.1,1.8,0.5l1,1.9c0.2,0.3,0.2,0.7,0.1,1
	c-0.1,0.3-0.3,0.6-0.6,0.8l-1.1,0.6c0,0,0,0-0.1,0.1c0,0,0,0-0.1,0.1c0,0,0,0.1-0.1,0.1c0,0,0,0,0,0.1c0,0,0,0.1,0,0.1
	c0,0,0,0,0,0.1c0,0.1,0,0.1,0,0.2l0.1,0.3l3.5,7.2c0.1,0.2,0.3,0.3,0.6,0.2c0.2-0.1,1-0.5,1.3-0.8c0.6-0.3,1.4-0.1,1.7,0.5l1,1.9
	C20.9,21.9,20.7,22.7,20.1,23z"/>
</svg>
