<?xml version="1.0" encoding="utf-8"?>
<!-- Generator: Adobe Illustrator 22.1.0, SVG Export Plug-In . SVG Version: 6.00 Build 0)  -->
<svg version="1.1" id="Слой_1" xmlns="http://www.w3.org/2000/svg" xmlns:xlink="http://www.w3.org/1999/xlink" x="0px" y="0px"
	 viewBox="0 0 30 30" style="enable-background:new 0 0 30 30;" xml:space="preserve" fill="#69A4BF">
<g>
	<path class="st1" d="M23.3,7.7h-0.9V7.2c0-0.2-0.2-0.5-0.5-0.5c-0.2,0-0.5,0.2-0.5,0.5v2.2H19V7.2c0-0.2-0.2-0.5-0.5-0.5
		s-0.5,0.2-0.5,0.5v0.5h-6.2V7.2c0-0.2-0.2-0.5-0.5-0.5c-0.2,0-0.5,0.2-0.5,0.5v2.2H8.6V7.2c0-0.2-0.2-0.5-0.5-0.5
		c-0.2,0-0.5,0.2-0.5,0.5v0.5H6.7c-0.9,0-1.5,0.7-1.5,1.5v12.5c0,0.9,0.7,1.5,1.5,1.5h16.5c0.9,0,1.5-0.7,1.5-1.5V9.2
		C24.8,8.4,24.1,7.7,23.3,7.7z M23.9,21.7c0,0.4-0.3,0.6-0.6,0.6H6.7c-0.4,0-0.6-0.3-0.6-0.6V9.2c0-0.4,0.3-0.6,0.6-0.6h0.9v1.3
		c0,0.2,0.2,0.5,0.5,0.5h3.3c0.2,0,0.5-0.2,0.5-0.5V8.6h6.2v1.3c0,0.2,0.2,0.5,0.5,0.5h3.3c0.2,0,0.5-0.2,0.5-0.5V8.6h0.9
		c0.4,0,0.6,0.3,0.6,0.6V21.7z"/>
	<path class="st1" d="M14.6,12.4h-2.3c-0.2,0-0.5,0.2-0.5,0.5c0,0.2,0.2,0.5,0.5,0.5h1.8v1.2c0,0.2,0.2,0.5,0.5,0.5
		c0.2,0,0.5-0.2,0.5-0.5v-1.6C15.1,12.6,14.9,12.4,14.6,12.4z"/>
	<path class="st1" d="M18.3,12.4H16c-0.2,0-0.5,0.2-0.5,0.5c0,0.2,0.2,0.5,0.5,0.5h1.8v1.2c0,0.2,0.2,0.5,0.5,0.5s0.5-0.2,0.5-0.5
		v-1.6C18.7,12.6,18.5,12.4,18.3,12.4z"/>
	<path class="st1" d="M21.9,12.4h-2.3c-0.2,0-0.5,0.2-0.5,0.5c0,0.2,0.2,0.5,0.5,0.5h1.8v1.2c0,0.2,0.2,0.5,0.5,0.5
		c0.2,0,0.5-0.2,0.5-0.5v-1.6C22.4,12.6,22.2,12.4,21.9,12.4z"/>
	<path class="st1" d="M14.6,15h-2.3c-0.2,0-0.5,0.2-0.5,0.5c0,0.2,0.2,0.5,0.5,0.5h1.8v1.2c0,0.2,0.2,0.5,0.5,0.5
		c0.2,0,0.5-0.2,0.5-0.5v-1.6C15.1,15.2,14.9,15,14.6,15z"/>
	<path class="st1" d="M18.3,15H16c-0.2,0-0.5,0.2-0.5,0.5c0,0.2,0.2,0.5,0.5,0.5h1.8v1.2c0,0.2,0.2,0.5,0.5,0.5s0.5-0.2,0.5-0.5
		v-1.6C18.7,15.2,18.5,15,18.3,15z"/>
	<path class="st1" d="M21.9,15h-2.3c-0.2,0-0.5,0.2-0.5,0.5c0,0.2,0.2,0.5,0.5,0.5h1.8v1.2c0,0.2,0.2,0.5,0.5,0.5
		c0.2,0,0.5-0.2,0.5-0.5v-1.6C22.4,15.2,22.2,15,21.9,15z"/>
	<path class="st1" d="M11,17.7H8.7c-0.2,0-0.5,0.2-0.5,0.5c0,0.2,0.2,0.5,0.5,0.5h1.8v1.2c0,0.2,0.2,0.5,0.5,0.5
		c0.2,0,0.5-0.2,0.5-0.5v-1.6C11.4,17.9,11.2,17.7,11,17.7z"/>
	<path class="st1" d="M11,15H8.7c-0.2,0-0.5,0.2-0.5,0.5c0,0.2,0.2,0.5,0.5,0.5h1.8v1.2c0,0.2,0.2,0.5,0.5,0.5
		c0.2,0,0.5-0.2,0.5-0.5v-1.6C11.4,15.2,11.2,15,11,15z"/>
	<path class="st1" d="M14.6,17.7h-2.3c-0.2,0-0.5,0.2-0.5,0.5c0,0.2,0.2,0.5,0.5,0.5h1.8v1.2c0,0.2,0.2,0.5,0.5,0.5
		c0.2,0,0.5-0.2,0.5-0.5v-1.6C15.1,17.9,14.9,17.7,14.6,17.7z"/>
	<path class="st1" d="M18.3,17.7H16c-0.2,0-0.5,0.2-0.5,0.5c0,0.2,0.2,0.5,0.5,0.5h1.8v1.2c0,0.2,0.2,0.5,0.5,0.5s0.5-0.2,0.5-0.5
		v-1.6C18.7,17.9,18.5,17.7,18.3,17.7z"/>
</g>
</svg>
