<?xml version="1.0" encoding="utf-8"?>
<!-- Generator: Adobe Illustrator 22.1.0, SVG Export Plug-In . SVG Version: 6.00 Build 0)  -->
<svg version="1.1" id="Слой_1" xmlns="http://www.w3.org/2000/svg" xmlns:xlink="http://www.w3.org/1999/xlink" x="0px" y="0px"
	 viewBox="0 0 30 30" style="enable-background:new 0 0 30 30;" xml:space="preserve" fill="#69A4BF">
<g>
	<path class="st1" d="M15,5.6c-3.4,0-6.1,2.7-6.1,6.1c0,3.2,5.5,12.2,5.7,12.6c0.1,0.1,0.2,0.2,0.4,0.2c0.2,0,0.3-0.1,0.4-0.2
		c0.2-0.4,5.7-9.4,5.7-12.6C21.1,8.3,18.4,5.6,15,5.6z M15,23.1c-1.3-2.1-5.2-9-5.2-11.5c0-2.9,2.3-5.2,5.2-5.2s5.2,2.3,5.2,5.2
		C20.2,14.1,16.3,21,15,23.1z"/>
	<path class="st1" d="M15,8.7c-1.7,0-3.1,1.4-3.1,3.1c0,1.7,1.4,3.1,3.1,3.1c1.7,0,3.1-1.4,3.1-3.1C18.1,10.1,16.7,8.7,15,8.7z
		 M15,14c-1.2,0-2.2-1-2.2-2.2c0-1.2,1-2.2,2.2-2.2c1.2,0,2.2,1,2.2,2.2C17.2,13,16.2,14,15,14z"/>
</g>
</svg>
