<?xml version="1.0" encoding="utf-8"?>
<!-- Generator: Adobe Illustrator 22.1.0, SVG Export Plug-In . SVG Version: 6.00 Build 0)  -->
<svg version="1.1" id="Слой_1" xmlns="http://www.w3.org/2000/svg" xmlns:xlink="http://www.w3.org/1999/xlink" x="0px" y="0px"
	 viewBox="0 0 30 30" style="enable-background:new 0 0 30 30;" xml:space="preserve" fill="#69A4BF">
<path class="st1" d="M18.2,8.8c-1.2,0-2.3,0.3-3.2,0.9c-0.9-0.6-2-0.9-3.2-0.9c-3.4,0-6.2,2.8-6.2,6.2s2.8,6.2,6.2,6.2
	c1.2,0,2.3-0.3,3.2-0.9c0.9,0.6,2,0.9,3.2,0.9c3.4,0,6.2-2.8,6.2-6.2S21.6,8.8,18.2,8.8z M11.8,20.3c-2.9,0-5.3-2.4-5.3-5.3
	s2.4-5.3,5.3-5.3c0.9,0,1.7,0.2,2.4,0.6C12.8,11.4,12,13.1,12,15s0.9,3.6,2.2,4.8C13.5,20.1,12.7,20.3,11.8,20.3z M17.1,15
	c0,1.7-0.8,3.3-2.1,4.3c-1.3-1-2.1-2.5-2.1-4.3s0.8-3.3,2.1-4.3C16.3,11.7,17.1,13.3,17.1,15z M18.2,20.3c-0.9,0-1.7-0.2-2.4-0.6
	c1.4-1.1,2.2-2.9,2.2-4.8s-0.9-3.6-2.2-4.8c0.7-0.4,1.5-0.6,2.4-0.6c2.9,0,5.3,2.4,5.3,5.3S21.2,20.3,18.2,20.3z"/>
</svg>
