<?xml version="1.0" encoding="utf-8"?>
<!-- Generator: Adobe Illustrator 22.1.0, SVG Export Plug-In . SVG Version: 6.00 Build 0)  -->
<svg version="1.1" id="Слой_1" xmlns="http://www.w3.org/2000/svg" xmlns:xlink="http://www.w3.org/1999/xlink" x="0px" y="0px"
	 viewBox="0 0 30 30" style="enable-background:new 0 0 30 30;" xml:space="preserve" fill="#69A4BF">
<g>
	<path class="st1" d="M15,14.6c1.1,0,2.1-0.4,2.8-1.2c0,0,0,0,0,0c0.8-0.8,1.2-1.8,1.2-2.8c0-1.1-0.4-2.1-1.2-2.8
		c-1.5-1.5-4.1-1.5-5.6,0C11.4,8.5,11,9.5,11,10.6c0,1.1,0.4,2.1,1.2,2.8C12.9,14.1,13.9,14.6,15,14.6z M13.5,9
		c0.4-0.4,1-0.6,1.5-0.6c0.6,0,1.1,0.2,1.5,0.6c0.4,0.4,0.6,1,0.6,1.5c0,0.6-0.2,1.1-0.6,1.5c-0.8,0.8-2.2,0.8-3.1,0
		c-0.4-0.4-0.6-1-0.6-1.5C12.8,10,13.1,9.5,13.5,9z"/>
	<path class="st1" d="M15,15c-3.3,0-6,2.7-6,6v1.5c0,0.5,0.4,0.9,0.9,0.9c0.5,0,0.9-0.4,0.9-0.9V21c0-2.3,1.9-4.2,4.2-4.2
		c2.3,0,4.2,1.9,4.2,4.2v1.5c0,0.5,0.4,0.9,0.9,0.9S21,23,21,22.5V21C21,17.7,18.3,15,15,15z"/>
</g>
</svg>
